<?xml version="1.0" encoding="utf-8" ?>
<svg xmlns="http://www.w3.org/2000/svg" xmlns:xlink="http://www.w3.org/1999/xlink" width="1024" height="1024">
	<path fill="#FEFEFE" d="M498.415 57.2239L498.835 57.2023C508.407 56.7518 518.066 57.0919 527.641 57.3884C635.459 60.7263 740.382 107.205 819.741 179.489C901.967 254.383 956.227 369.579 961.317 480.721C962.347 499.616 962.21 518.558 960.908 537.437C952.884 637.385 911.394 731.708 843.143 805.165C772.938 882.182 673.111 932.852 570.206 947.365C554.817 949.536 539.414 950.254 523.911 950.979C506.681 951.098 489.658 950.969 472.468 949.515C365.441 940.462 273.458 896.48 195.246 823.688C174.846 804.425 156.402 783.192 140.184 760.297C89.0845 688.506 62.3362 605.025 59.3282 517.158C56.037 400.695 99.1 287.686 179.061 202.947C262.101 114.119 376.9 61.735 498.415 57.2239Z"/>
	<path fill="#223349" d="M244.011 254.03L310.49 254.03C310.077 285.647 310.429 317.316 310.422 348.938L309.955 614.794C309.874 622.137 308.622 633.158 314.239 638.628C316.169 640.507 319.19 642.006 321.873 642.316C331.04 643.373 340.763 642.496 350.007 642.473L403.013 642.516L587.072 642.445C587.78 652.805 587.557 663.262 587.52 673.642C587.483 684.094 587.585 694.578 587.295 705.025C551.838 705.762 516.281 705.065 480.811 705.051C419.932 704.814 359.053 704.976 298.177 705.535C282.587 705.605 268.919 704.603 257.309 692.94C249.809 685.404 245.918 676.14 244.564 665.695C242.623 650.717 243.981 635.408 244.018 620.345L244.011 539.119L244.011 254.03Z"/>
	<path fill="#223349" d="M351.813 254.037L767.429 253.947C766.812 274.651 767.207 295.349 767.478 316.054C707.351 316.539 647.222 316.661 587.094 316.418C587.536 355.194 587.634 393.973 587.388 432.75C587.379 493.126 588.141 553.6 587.297 613.966L520.056 614.096L520.016 316.267C464.051 315.278 407.937 316.158 351.957 316.252C351.721 295.514 351.673 274.775 351.813 254.037Z"/>
	<path fill="#223349" d="M806.9 352.528C810.476 352.4 814.114 352.728 817.556 353.737C820.469 354.591 823.492 356.015 825.641 358.208C830.459 363.125 834.313 369.241 838.349 374.813L858.112 402.113L885.447 440.122C891.914 449.092 899.169 458.135 904.312 467.945C909.626 478.083 910.482 490.791 906.901 501.597C905.052 507.178 902.182 512.311 898.976 517.216C894.34 524.308 888.972 530.943 883.921 537.741L856.459 574.861C850.504 582.928 844.617 591.046 838.798 599.212C835.324 604.071 832.008 609.301 828.054 613.783C824.687 617.6 821.252 620.416 816.7 622.684C811.488 624.041 806.296 624.463 801.195 622.319C796.254 620.243 792.41 615.968 790.485 611.006C788.739 606.62 788.648 601.748 790.228 597.299C793.335 588.661 800.34 580.934 805.714 573.589L837.808 529.727C845.718 518.969 855.827 507.5 861.19 495.233C862.815 491.514 863.636 488.17 862.588 484.172C860.301 475.456 853.334 467.672 848.162 460.471C839.456 448.274 830.636 436.158 821.704 424.126C813.409 413.014 795.542 392.357 791.1 380.289C789.108 374.875 789.112 369.111 791.731 363.901C794.865 357.664 800.622 354.716 806.9 352.528Z"/>
	<path fill="#F69B3A" d="M192.628 356.54C198.416 356.211 204.105 356.54 209.008 359.978C213.448 363.14 216.448 367.937 217.348 373.313C218.051 377.559 217.407 381.649 215.627 385.545C210.731 396.265 201.483 406.127 194.472 415.619L157.559 466.297C153.39 472.08 146.69 480.759 147.001 488.282C147.168 492.332 149.394 496.556 151.385 500.015C156.026 508.077 162.205 515.646 167.626 523.223L198.66 566.502C205.05 575.369 216.889 589.111 218.432 599.978C219.123 604.807 217.786 609.706 214.738 613.514C210.887 618.423 205.883 620.458 199.888 621.227C196.711 621.013 193.47 620.84 190.446 619.745C187.339 618.618 185.443 616.431 183.363 613.983C177.899 607.552 173.181 600.415 168.315 593.529L146.124 562.198C140.079 553.673 133.973 545.191 127.805 536.754C120.529 526.866 112.55 517.088 107.387 505.88C102.383 495.016 101.597 483.969 105.784 472.703C107.366 468.444 109.409 464.813 111.863 461.001C116.662 453.547 122.156 446.447 127.349 439.262L155.203 400.709L171.757 377.554C174.854 373.182 177.833 368.332 181.393 364.328C184.69 360.62 188.198 358.568 192.628 356.54Z"/>
	<path fill="#223349" d="M812.487 464.193C824.822 462.805 835.96 471.645 837.408 483.973C838.856 496.301 830.07 507.482 817.749 508.991C805.343 510.509 794.068 501.649 792.61 489.236C791.151 476.822 800.067 465.59 812.487 464.193Z"/>
	<path fill="#F69B3A" d="M191.181 464.746C203.471 463.418 214.51 472.308 215.832 484.599C217.154 496.891 208.257 507.925 195.965 509.239C183.683 510.553 172.659 501.665 171.339 489.384C170.018 477.102 178.9 466.074 191.181 464.746Z"/>
</svg>
